<svg width="88" height="15" viewBox="0 0 88 15" fill="none" xmlns="http://www.w3.org/2000/svg">
<path d="M8.38399 0.247839L10.4286 4.95157L15.6175 5.40785C15.6995 5.41446 15.7776 5.4448 15.842 5.49506C15.9065 5.54532 15.9544 5.61323 15.9797 5.69026C16.0051 5.76728 16.0067 5.84996 15.9844 5.92789C15.9621 6.00581 15.9169 6.07549 15.8544 6.12815L11.9266 9.49895L13.0849 14.4975C13.097 14.55 13.0984 14.6043 13.0891 14.6574C13.0798 14.7105 13.06 14.7612 13.0307 14.8067C13.0015 14.8522 12.9634 14.8916 12.9186 14.9225C12.8738 14.9535 12.8233 14.9754 12.7699 14.9871C12.6595 15.01 12.5443 14.9888 12.4498 14.9281L7.99225 12.3084L3.52302 14.9409C3.47633 14.9688 3.4245 14.9873 3.37052 14.9954C3.31653 15.0035 3.26146 15.0009 3.20847 14.9879C3.15548 14.975 3.10563 14.9518 3.06178 14.9197C3.01793 14.8877 2.98095 14.8474 2.95298 14.8012C2.92496 14.756 2.90629 14.7058 2.89802 14.6534C2.88976 14.6011 2.89207 14.5476 2.90483 14.4962L4.06443 9.49766L0.141817 6.12815C0.0593658 6.05611 0.00883778 5.95513 0.0010536 5.84685C-0.00673058 5.73857 0.028848 5.6316 0.10017 5.54883C0.178775 5.46952 0.285702 5.42354 0.398206 5.42067L5.56762 4.96439L7.61223 0.247839C7.64521 0.174121 7.69925 0.11144 7.76776 0.0674352C7.83628 0.02343 7.91631 0 7.99811 0C8.07991 0 8.15994 0.02343 8.22846 0.0674352C8.29698 0.11144 8.35102 0.174121 8.38399 0.247839Z" fill="#FFD401"/>
<path d="M26.384 0.247839L28.4286 4.95157L33.6175 5.40785C33.6995 5.41446 33.7776 5.4448 33.842 5.49506C33.9065 5.54532 33.9544 5.61323 33.9797 5.69026C34.0051 5.76728 34.0067 5.84996 33.9844 5.92789C33.9621 6.00581 33.9169 6.07549 33.8544 6.12815L29.9266 9.49895L31.0849 14.4975C31.097 14.55 31.0984 14.6043 31.0891 14.6574C31.0798 14.7105 31.06 14.7612 31.0307 14.8067C31.0015 14.8522 30.9634 14.8916 30.9186 14.9225C30.8738 14.9535 30.8233 14.9754 30.7699 14.9871C30.6595 15.01 30.5443 14.9888 30.4498 14.9281L25.9923 12.3084L21.523 14.9409C21.4763 14.9688 21.4245 14.9873 21.3705 14.9954C21.3165 15.0035 21.2615 15.0009 21.2085 14.9879C21.1555 14.975 21.1056 14.9518 21.0618 14.9197C21.0179 14.8877 20.981 14.8474 20.953 14.8012C20.925 14.756 20.9063 14.7058 20.898 14.6534C20.8898 14.6011 20.8921 14.5476 20.9048 14.4962L22.0644 9.49766L18.1418 6.12815C18.0594 6.05611 18.0088 5.95513 18.0011 5.84685C17.9933 5.73857 18.0288 5.6316 18.1002 5.54883C18.1788 5.46952 18.2857 5.42354 18.3982 5.42067L23.5676 4.96439L25.6122 0.247839C25.6452 0.174121 25.6992 0.11144 25.7678 0.0674352C25.8363 0.02343 25.9163 0 25.9981 0C26.0799 0 26.1599 0.02343 26.2285 0.0674352C26.297 0.11144 26.351 0.174121 26.384 0.247839Z" fill="#FFD401"/>
<path d="M44.384 0.247839L46.4286 4.95157L51.6175 5.40785C51.6995 5.41446 51.7776 5.4448 51.842 5.49506C51.9065 5.54532 51.9544 5.61323 51.9797 5.69026C52.0051 5.76728 52.0067 5.84996 51.9844 5.92789C51.9621 6.00581 51.9169 6.07549 51.8544 6.12815L47.9266 9.49895L49.0849 14.4975C49.097 14.55 49.0984 14.6043 49.0891 14.6574C49.0798 14.7105 49.06 14.7612 49.0307 14.8067C49.0015 14.8522 48.9634 14.8916 48.9186 14.9225C48.8738 14.9535 48.8233 14.9754 48.7699 14.9871C48.6595 15.01 48.5443 14.9888 48.4498 14.9281L43.9923 12.3084L39.523 14.9409C39.4763 14.9688 39.4245 14.9873 39.3705 14.9954C39.3165 15.0035 39.2615 15.0009 39.2085 14.9879C39.1555 14.975 39.1056 14.9518 39.0618 14.9197C39.0179 14.8877 38.981 14.8474 38.953 14.8012C38.925 14.756 38.9063 14.7058 38.898 14.6534C38.8898 14.6011 38.8921 14.5476 38.9048 14.4962L40.0644 9.49766L36.1418 6.12815C36.0594 6.05611 36.0088 5.95513 36.0011 5.84685C35.9933 5.73857 36.0288 5.6316 36.1002 5.54883C36.1788 5.46952 36.2857 5.42354 36.3982 5.42067L41.5676 4.96439L43.6122 0.247839C43.6452 0.174121 43.6992 0.11144 43.7678 0.0674352C43.8363 0.02343 43.9163 0 43.9981 0C44.0799 0 44.1599 0.02343 44.2285 0.0674352C44.297 0.11144 44.351 0.174121 44.384 0.247839Z" fill="#FFD401"/>
<path d="M62.384 0.247839L64.4286 4.95157L69.6175 5.40785C69.6995 5.41446 69.7776 5.4448 69.842 5.49506C69.9065 5.54532 69.9544 5.61323 69.9797 5.69026C70.0051 5.76728 70.0067 5.84996 69.9844 5.92789C69.9621 6.00581 69.9169 6.07549 69.8544 6.12815L65.9266 9.49895L67.0849 14.4975C67.097 14.55 67.0984 14.6043 67.0891 14.6574C67.0798 14.7105 67.06 14.7612 67.0307 14.8067C67.0015 14.8522 66.9634 14.8916 66.9186 14.9225C66.8738 14.9535 66.8233 14.9754 66.7699 14.9871C66.6595 15.01 66.5443 14.9888 66.4498 14.9281L61.9923 12.3084L57.523 14.9409C57.4763 14.9688 57.4245 14.9873 57.3705 14.9954C57.3165 15.0035 57.2615 15.0009 57.2085 14.9879C57.1555 14.975 57.1056 14.9518 57.0618 14.9197C57.0179 14.8877 56.981 14.8474 56.953 14.8012C56.925 14.756 56.9063 14.7058 56.898 14.6534C56.8898 14.6011 56.8921 14.5476 56.9048 14.4962L58.0644 9.49766L54.1418 6.12815C54.0594 6.05611 54.0088 5.95513 54.0011 5.84685C53.9933 5.73857 54.0288 5.6316 54.1002 5.54883C54.1788 5.46952 54.2857 5.42354 54.3982 5.42067L59.5676 4.96439L61.6122 0.247839C61.6452 0.174121 61.6992 0.11144 61.7678 0.0674352C61.8363 0.02343 61.9163 0 61.9981 0C62.0799 0 62.1599 0.02343 62.2285 0.0674352C62.297 0.11144 62.351 0.174121 62.384 0.247839Z" fill="#FFD401"/>
<path d="M80.384 0.247839L82.4286 4.95157L87.6175 5.40785C87.6995 5.41446 87.7776 5.4448 87.842 5.49506C87.9065 5.54532 87.9544 5.61323 87.9797 5.69026C88.0051 5.76728 88.0067 5.84996 87.9844 5.92789C87.9621 6.00581 87.9169 6.07549 87.8544 6.12815L83.9266 9.49895L85.0849 14.4975C85.097 14.55 85.0984 14.6043 85.0891 14.6574C85.0798 14.7105 85.06 14.7612 85.0307 14.8067C85.0015 14.8522 84.9634 14.8916 84.9186 14.9225C84.8738 14.9535 84.8233 14.9754 84.7699 14.9871C84.6595 15.01 84.5443 14.9888 84.4498 14.9281L79.9923 12.3084L75.523 14.9409C75.4763 14.9688 75.4245 14.9873 75.3705 14.9954C75.3165 15.0035 75.2615 15.0009 75.2085 14.9879C75.1555 14.975 75.1056 14.9518 75.0618 14.9197C75.0179 14.8877 74.981 14.8474 74.953 14.8012C74.925 14.756 74.9063 14.7058 74.898 14.6534C74.8898 14.6011 74.8921 14.5476 74.9048 14.4962L76.0644 9.49766L72.1418 6.12815C72.0594 6.05611 72.0088 5.95513 72.0011 5.84685C71.9933 5.73857 72.0288 5.6316 72.1002 5.54883C72.1788 5.46952 72.2857 5.42354 72.3982 5.42067L77.5676 4.96439L79.6122 0.247839C79.6452 0.174121 79.6992 0.11144 79.7678 0.0674352C79.8363 0.02343 79.9163 0 79.9981 0C80.0799 0 80.1599 0.02343 80.2285 0.0674352C80.297 0.11144 80.351 0.174121 80.384 0.247839Z" fill="#FFD401"/>
</svg>
