<svg width="247" height="38" viewBox="0 0 247 38" fill="none" xmlns="http://www.w3.org/2000/svg">
<path d="M7.97775 17.2529L19.1836 36.6127C19.3542 36.9247 19.1409 37.3219 18.7712 37.3219H10.7223C10.2673 37.3219 9.85487 37.0808 9.61312 36.6836L0.170647 20.359C-0.0568824 19.976 -0.0568824 19.4796 0.170647 19.0967L2.64503 14.8276H2.65925L5.71668 9.55151H5.70246L7.96353 5.65118C9.82643 2.44582 14.4339 2.24725 16.4674 5.33915C16.5101 5.41007 16.5528 5.4668 16.5954 5.53771L28.754 26.5286C28.7683 26.5428 28.7825 26.557 28.7825 26.5711C30.233 29.039 33.8024 28.9964 35.2386 26.5286L36.3336 24.6422C34.684 24.5571 33.1909 23.6636 32.3661 22.2169L21.1602 2.84294C20.9896 2.53091 21.2029 2.13379 21.5726 2.13379H29.6073C30.0623 2.13379 30.4747 2.3749 30.7165 2.77203L40.159 19.0825C40.3865 19.4654 40.3865 19.9618 40.159 20.3448L39.064 22.2311L33.5037 31.8472L32.3092 33.9038C30.4463 37.1091 25.8104 37.251 23.8479 34.1023C23.8195 34.0456 23.7626 33.9747 23.7342 33.9179L11.5756 12.9271C11.5613 12.9129 11.5471 12.8987 11.5471 12.8845C10.0966 10.4309 6.52725 10.4734 5.10519 12.9271L3.99599 14.8276C5.6598 14.9127 7.15296 15.8204 7.97775 17.2529Z" fill="#FA7D54"/>
<path d="M53.8356 17.0049C53.6503 17.0049 53.4915 16.8464 53.4915 16.6616V0.844963C53.4915 0.660127 53.6503 0.501696 53.8356 0.501696H60.1632C61.9105 0.501696 63.0754 0.871367 64.1079 1.63711C65.5376 2.66691 66.12 4.62089 65.4582 6.28441C65.114 7.12937 64.5315 7.57825 63.7373 8.00074C64.8757 8.15917 65.5905 8.89851 66.0141 9.42661C66.6231 10.2188 66.9408 11.1693 66.9408 12.2784C66.9408 13.7306 66.3583 14.9189 65.2464 15.7638C64.1609 16.5824 62.6783 17.0049 60.8515 17.0049H53.8356ZM57.3833 6.54846H59.9778C60.5073 6.54846 60.9309 6.44284 61.2222 6.20519C61.4869 5.96754 61.6193 5.65068 61.6193 5.2282C61.6193 4.83213 61.4869 4.51527 61.2222 4.30403C60.9574 4.06638 60.5603 3.96076 60.0837 3.96076H57.3833V6.54846ZM57.3833 13.757H60.4809C61.2751 13.757 61.884 13.5986 62.3341 13.2817C62.7312 12.9913 62.943 12.5952 62.943 12.0407C62.943 11.539 62.7312 11.1693 62.3341 10.8789C61.9105 10.5884 61.3281 10.43 60.5868 10.43H57.3833V13.757ZM76.986 17.0049C75.5564 17.0049 74.5239 16.7144 73.4384 16.1335C72.3794 15.5526 71.5322 14.734 70.9497 13.6514C70.3673 12.5952 70.0761 11.3278 70.0761 9.8755V0.580912C70.0761 0.396076 70.2349 0.264051 70.4202 0.264051H73.862C74.0473 0.264051 74.1797 0.396076 74.1797 0.580912V9.8755C74.1797 10.9317 74.4709 11.7503 75.0269 12.3312C75.5829 12.9121 76.0859 13.2025 77.0125 13.2025C77.9391 13.2025 78.4157 12.9121 78.9452 12.3576C79.4747 11.7767 79.7394 10.9317 79.7394 9.8755V0.580912C79.7394 0.396076 79.8983 0.264051 80.0836 0.264051H83.5254C83.7107 0.264051 83.8695 0.396076 83.8695 0.580912V9.8755C83.8695 11.3278 83.5783 12.5952 82.9959 13.6514C82.4399 14.734 81.5927 15.5526 80.5337 16.1335C79.4747 16.7144 78.4157 17.0049 76.986 17.0049ZM87.349 17.0049C87.1637 17.0049 87.0049 16.8464 87.0049 16.6616V0.844963C87.0049 0.660127 87.1637 0.501696 87.349 0.501696H90.4731C90.579 0.501696 90.6849 0.554506 90.7643 0.633722L96.8536 10.0075V0.844963C96.8536 0.660127 97.0124 0.501696 97.1977 0.501696H100.454C100.639 0.501696 100.798 0.660127 100.798 0.844963V16.6616C100.798 16.8464 100.639 17.0049 100.454 17.0049H97.3301C97.2242 17.0049 97.1183 16.9521 97.0389 16.8728L90.9761 7.55185V16.6616C90.9761 16.8464 90.8173 17.0049 90.6319 17.0049H87.349ZM104.278 17.0049C104.092 17.0049 103.934 16.8464 103.934 16.6616V0.844963C103.934 0.660127 104.092 0.501696 104.278 0.501696H107.72C107.905 0.501696 108.064 0.660127 108.064 0.844963V5.51866L112.856 0.607317C112.935 0.554506 113.015 0.501696 113.12 0.501696H117.118C117.251 0.501696 117.383 0.580911 117.436 0.686532C117.489 0.818557 117.462 0.950583 117.383 1.0562L112.035 6.7597L117.992 16.4504C118.045 16.5032 118.071 16.5824 118.071 16.6616C118.071 16.8464 117.912 17.0049 117.727 17.0049H113.597C113.491 17.0049 113.385 16.9521 113.332 16.8464L108.964 9.47942L108.064 10.2716V16.6616C108.064 16.8464 107.905 17.0049 107.72 17.0049H104.278ZM121.207 17.0049V1.18823C121.207 0.528102 121.339 0.396076 121.551 0.396076H133.147C133.332 0.396076 133.491 0.528101 133.491 0.712937V3.69671C133.491 3.88155 133.332 4.03998 133.147 4.03998H125.31V6.7861H130.261C130.446 6.7861 130.605 6.94453 130.605 7.12937V10.0867C130.605 10.2716 130.446 10.43 130.261 10.43H125.31V13.2553H133.12C133.306 13.2553 133.465 13.4138 133.465 13.5986V16.556C133.465 16.7408 133.306 16.8992 133.12 16.8992H121.551C121.339 16.8992 121.207 16.7408 121.207 17.0049ZM136.97 17.0049C136.759 17.0049 136.626 16.8464 136.626 16.6616V0.844963C136.626 0.660127 136.759 0.501696 136.97 0.501696H143.43C145.442 0.501696 147.031 1.00339 148.143 2.03319C149.784 3.51187 150.34 6.31081 149.546 8.37041C149.255 9.10975 148.752 9.79628 148.116 10.298C147.746 10.5884 147.349 10.7997 146.952 11.0109C148.09 12.8065 149.811 16.4504 149.811 16.4504C149.837 16.5032 149.89 16.5824 149.89 16.6616C149.89 16.8464 149.731 17.0049 149.546 17.0049H145.628C145.522 17.0049 145.39 16.9256 145.337 16.82L143.033 11.7767C142.213 11.8295 141.577 11.8031 140.73 11.8031V16.6616C140.73 16.8464 140.571 17.0049 140.386 17.0049H136.97ZM140.73 8.13276C140.73 8.13276 144.066 8.50243 145.231 7.73668C145.681 7.44623 145.946 6.73329 145.946 6.20519C145.919 5.62428 145.628 5.01696 145.151 4.64729C144.648 4.22481 143.404 4.09279 142.769 4.09279L140.73 4.1456V8.13276ZM153.396 17.0049C153.184 17.0049 153.052 16.8464 153.052 16.6616V0.844963C153.052 0.660127 153.184 0.501696 153.396 0.501696H159.406C160.995 0.501696 162.451 0.844963 163.722 1.5579C164.992 2.24443 165.972 3.22142 166.687 4.48886C167.375 5.7299 167.746 7.15577 167.746 8.74008C167.746 10.3508 167.375 11.7767 166.66 13.0177C165.945 14.2851 164.939 15.2621 163.642 15.9487C162.371 16.6616 160.889 17.0049 159.274 17.0049H153.396ZM157.156 13.3082H159.485C160.253 13.3082 160.968 13.1233 161.577 12.7536C162.186 12.3576 162.689 11.8295 163.033 11.1429C163.377 10.4564 163.563 9.66426 163.563 8.76648C163.563 7.89512 163.377 7.07656 163.007 6.39003C162.636 5.67709 162.133 5.14899 161.498 4.75291C160.862 4.38324 160.121 4.172 159.327 4.172H157.156V13.3082ZM171.225 17.0049C171.04 17.0049 170.881 16.8464 170.881 16.6616V0.844963C170.881 0.660127 171.04 0.501696 171.225 0.501696H174.667C174.852 0.501696 175.011 0.660127 175.011 0.844963V16.6616C175.011 16.8464 174.852 17.0049 174.667 17.0049H171.225ZM186.592 17.0049C185.03 17.0049 183.574 16.6352 182.303 15.8959C181.006 15.1301 180 14.1003 179.258 12.8329C178.517 11.539 178.146 10.0603 178.146 8.47603C178.146 6.89172 178.517 5.43944 179.285 4.172C180.026 2.87815 181.085 1.84835 182.382 1.10901C183.706 0.369671 185.189 0 186.804 0C187.969 0 189.107 0.211241 190.245 0.660127C191.357 1.08261 192.337 1.68992 193.131 2.45567C193.264 2.56129 193.29 2.74613 193.184 2.90456L191.252 5.43944C191.172 5.51866 191.093 5.57147 190.987 5.59787C190.907 5.59787 190.801 5.54506 190.722 5.49225C190.193 4.96415 189.584 4.54167 188.869 4.25122C188.18 3.96076 187.492 3.80233 186.804 3.80233C185.983 3.80233 185.215 4.01357 184.553 4.40965C183.865 4.83213 183.336 5.38663 182.938 6.09957C182.541 6.81251 182.356 7.60466 182.356 8.47603C182.356 9.34739 182.541 10.166 182.938 10.8789C183.336 11.5918 183.891 12.1727 184.553 12.5952C185.242 12.9913 186.009 13.2025 186.804 13.2025C187.227 13.2025 187.677 13.1233 188.18 12.9913C188.604 12.8593 189.054 12.6744 189.451 12.4632V11.2486H187.624C187.519 11.2486 187.439 11.2222 187.386 11.1429C187.307 11.0901 187.28 11.0109 187.28 10.9053L187.307 7.94793C187.307 7.76309 187.466 7.60466 187.651 7.60466H192.787C192.972 7.60466 193.131 7.76309 193.131 7.94793V14.5756C193.131 14.6812 193.078 14.7868 192.972 14.8661C192.152 15.4998 191.146 16.0279 189.981 16.3975C188.816 16.7936 187.677 17.0049 186.592 17.0049ZM196.717 17.0049C196.531 17.0049 196.372 16.8464 196.372 16.6616V0.844963C196.372 0.660127 196.531 0.501696 196.717 0.501696H200.158C200.344 0.501696 200.503 0.660127 200.503 0.844963V16.6616C200.503 16.8464 200.344 17.0049 200.158 17.0049H196.717ZM207.927 17.0049C207.742 17.0049 207.609 16.8464 207.609 16.6616V4.19841H203.982C203.797 4.19841 203.638 4.06638 203.638 3.88155V0.844963C203.638 0.660127 203.797 0.501696 203.982 0.501696H215.34C215.552 0.501696 215.684 0.660127 215.684 0.844963V3.88155C215.684 4.06638 215.552 4.19841 215.34 4.19841H211.713V16.6616C211.713 16.8464 211.554 17.0049 211.369 17.0049H207.927ZM217.575 17.0049C217.469 17.0049 217.363 16.9521 217.31 16.8464C217.231 16.7672 217.231 16.6352 217.257 16.5296L223.426 0.712937C223.479 0.580911 223.611 0.501696 223.744 0.501696H227.291C227.424 0.501696 227.556 0.580911 227.609 0.712937L233.672 16.5296C233.698 16.6352 233.698 16.7408 233.619 16.8464C233.566 16.9521 233.46 17.0049 233.354 17.0049H229.674C229.542 17.0049 229.409 16.9256 229.356 16.7936L228.377 14.3644L222.42 14.3908L221.44 16.7936C221.387 16.9256 221.255 17.0049 221.123 17.0049H217.575ZM223.505 11.0637H227.318L225.412 5.46585L223.505 11.0637ZM236.913 17.0049C236.728 17.0049 236.569 16.8464 236.569 16.6616V0.844963C236.569 0.660127 236.728 0.501696 236.913 0.501696H240.355C240.54 0.501696 240.699 0.660127 240.699 0.844963V13.2025H246.656C246.841 13.2025 247 13.361 247 13.5458V16.6616C247 16.8464 246.841 17.0049 246.656 17.0049H236.913Z" fill="#FFF3EF"/>
<path d="M53.4931 27.6527C53.4783 28.5724 53.5675 35.2922 53.5526 35.7817C53.5526 36.2415 53.5526 36.7014 53.5675 37.1612C53.5675 37.2354 53.6121 37.3096 53.6865 37.3096C54.7276 37.3541 55.7539 37.2651 56.795 37.2799C57.1371 37.2947 57.4792 37.2799 57.8064 37.2799C58.1336 37.2651 58.1633 37.1316 58.1485 36.8646C58.1336 36.4492 58.1336 36.0784 58.1336 35.6778C58.1187 35.4702 57.9997 35.396 57.8212 35.396C57.2114 35.4108 56.6016 35.3812 55.9918 35.4108C55.8877 35.4257 55.7836 35.4257 55.6795 35.4257C55.501 35.4108 55.4564 35.3663 55.4415 35.1735V34.951C55.3969 33.7198 55.4861 32.444 55.4861 31.2128C55.4713 30.1744 55.4861 29.2399 55.4713 28.3202C55.4713 27.9197 55.4713 27.5192 55.4564 27.1335C55.4415 26.8961 55.4564 26.644 55.3969 26.4066C55.3672 26.3176 55.3225 26.199 55.2184 26.199H53.8203C53.5824 26.199 53.508 26.3621 53.4931 26.5995V27.6527ZM69.6812 28.9284C69.9935 29.8481 70.0679 30.842 70.0679 31.821C70.0679 32.6369 69.9191 33.4231 69.7109 34.2093C69.4432 35.1438 68.997 35.9894 68.1939 36.5382C67.5989 36.9684 66.9742 37.2502 66.2455 37.3244C66.1413 37.3244 66.0521 37.3392 65.948 37.3392C65.8588 37.3392 65.7695 37.3244 65.6654 37.3244C64.9366 37.2502 64.3119 36.9684 63.7021 36.5382C62.9138 35.9894 62.4528 35.1438 62.1999 34.2093C61.9768 33.4231 61.843 32.6369 61.843 31.821C61.843 30.842 61.9173 29.8481 62.2297 28.9284C62.78 27.3412 64.2971 26.2138 65.948 26.1841C67.5989 26.2138 69.116 27.3412 69.6812 28.9284ZM68.2385 32.9039C68.3872 31.999 68.3277 31.0793 68.1492 30.1744C67.9708 29.3586 67.6138 28.5575 66.9296 28.068C66.8106 27.979 66.6768 27.9049 66.5429 27.8604C66.3496 27.7713 66.1413 27.7417 65.948 27.7417C65.7546 27.7417 65.5613 27.7713 65.3679 27.8604C65.2192 27.9049 65.1002 27.979 64.9812 28.068C64.2822 28.5575 63.9252 29.3586 63.7616 30.1744C63.5831 31.0793 63.5237 31.999 63.6724 32.9039C63.8211 33.7198 64.1186 34.8175 64.892 35.2328C65.2192 35.4108 65.5762 35.5295 65.948 35.5443C66.3198 35.5295 66.6917 35.4108 67.0189 35.2328C67.7923 34.8175 68.0897 33.7198 68.2385 32.9039ZM79.6373 27.9494C79.6522 27.4598 79.6373 27.0593 79.6373 26.5846C79.6373 26.0358 78.6408 26.0951 78.2839 26.1099C76.6924 26.2138 75.1754 27.2225 74.4466 28.602C74.2383 29.0026 74.0896 29.4179 73.9855 29.8481C73.7326 30.8568 73.7178 31.9249 73.8368 32.9484C73.9409 33.9126 74.1937 34.8768 74.7886 35.6482C75.8149 36.9981 77.7038 37.4728 79.325 37.2206C79.3994 37.2057 79.4737 37.1909 79.5332 37.1464C79.5778 37.1167 79.6225 37.0574 79.6225 36.9981L79.6671 36.1525C79.6819 35.8855 79.6671 35.9004 79.6671 35.6333C79.6671 35.2773 78.9234 35.5443 78.4623 35.5443C78.0161 35.5443 77.5402 35.5295 77.1386 35.3218C76.4247 34.9213 76.0231 34.1203 75.8 33.3637C75.5472 32.5479 75.4877 31.6727 75.6364 30.842C75.8149 29.7591 76.3355 28.513 77.4807 28.1422C78.1351 27.9197 78.8342 27.9939 79.4886 28.068C79.5778 28.0829 79.6373 28.0235 79.6373 27.9494ZM84.7299 37.2057C84.7745 37.2206 84.9084 37.2206 85.0423 37.2206C85.3397 37.2206 85.429 36.1525 85.4587 35.93C85.4736 35.752 85.5182 35.7372 85.6669 35.7075C86.4106 35.6185 86.7824 35.6778 87.5261 35.6927C87.6897 35.6927 87.7789 35.7668 87.8236 35.9004L87.9277 36.2415C88.0169 36.4937 88.0913 36.8052 88.1805 37.0574C88.24 37.2354 88.2549 37.2206 88.4334 37.2206C88.6713 37.2206 89.534 37.2206 89.7868 37.2057C90.1289 37.2057 89.8909 36.5085 89.8463 36.3899C89.7125 35.9745 89.6827 35.5443 89.5489 35.129C89.4894 34.951 87.7938 26.9258 87.7194 26.4808C87.6153 26.2138 87.7046 26.199 87.4666 26.199C86.9609 26.199 86.4255 26.2286 85.9049 26.199C85.6967 26.199 85.7116 26.2583 85.6818 26.4808C85.6521 26.6885 85.1166 29.0471 84.9084 30.0261C84.6407 31.2573 84.4027 32.444 84.1053 33.6604C84.0011 34.0906 83.2872 37.1909 83.3765 37.2057C83.4211 37.2354 83.4954 37.2206 83.5549 37.2206C83.9268 37.2206 84.2689 37.2206 84.7299 37.2057ZM86.6783 33.8384H86.366C85.9495 33.8384 85.9347 33.8384 86.0388 33.4083C86.1131 33.0819 86.5147 31.3167 86.604 30.8865C86.6188 30.8568 86.6486 30.8271 86.6635 30.8271C86.6932 30.8271 86.7229 30.8568 86.7378 30.8716C86.7973 31.0497 86.8568 31.4947 86.9163 31.6727C87.0502 32.2364 87.1394 32.7111 87.2733 33.3192C87.4071 33.8533 87.3476 33.8533 87.0799 33.8533C86.946 33.8533 86.8122 33.8384 86.6783 33.8384ZM93.6598 27.6527C93.645 28.5724 93.7342 35.2922 93.7193 35.7817C93.7193 36.2415 93.7193 36.7014 93.7342 37.1612C93.7342 37.2354 93.7788 37.3096 93.8532 37.3096C94.8943 37.3541 95.9206 37.2651 96.9617 37.2799C97.3038 37.2947 97.6459 37.2799 97.9731 37.2799C98.3003 37.2651 98.33 37.1316 98.3152 36.8646C98.3003 36.4492 98.3003 36.0784 98.3003 35.6778C98.2854 35.4702 98.1664 35.396 97.9879 35.396C97.3781 35.4108 96.7683 35.3812 96.1585 35.4108C96.0544 35.4257 95.9503 35.4257 95.8462 35.4257C95.6677 35.4108 95.6231 35.3663 95.6082 35.1735V34.951C95.5636 33.7198 95.6528 32.444 95.6528 31.2128C95.638 30.1744 95.6528 29.2399 95.638 28.3202C95.638 27.9197 95.638 27.5192 95.6231 27.1335C95.6082 26.8961 95.6231 26.644 95.5636 26.4066C95.5339 26.3176 95.4892 26.199 95.3851 26.199H93.987C93.7491 26.199 93.6747 26.3621 93.6598 26.5995V27.6527ZM107.95 27.3412C107.95 28.0532 107.92 35.7075 107.95 36.3899C107.965 36.553 107.965 36.7162 107.965 36.8794C107.965 36.9981 108.039 37.0722 108.143 37.1167C108.233 37.1464 108.352 37.1761 108.441 37.1761C108.872 37.1316 109.333 37.1761 109.779 37.1612C110.553 37.2206 111.252 37.0426 111.921 36.6866C112.546 36.3305 112.888 35.6927 113.126 35.0252C113.319 34.4615 113.29 33.7939 113.185 33.2154C113.096 32.6962 112.858 32.1919 112.546 31.7765C112.501 31.7172 111.862 31.3167 111.891 31.287C112.278 30.7381 112.828 30.2783 112.903 29.5959C112.962 29.0026 112.828 28.3944 112.62 27.8455C112.486 27.4895 112.308 27.1483 112.025 26.8813C111.549 26.4363 110.835 26.2435 110.211 26.1841C109.571 26.1248 108.976 26.1693 108.337 26.1396C108.114 26.1396 108.01 26.2286 108.01 26.466C108.01 26.7775 107.95 27.0297 107.95 27.3412ZM109.779 30.0409C109.765 29.8778 109.779 28.5724 109.75 28.0829C109.735 27.9049 109.839 27.8159 110.032 27.8604C110.181 27.89 110.3 27.9049 110.419 27.9939C110.791 28.2757 111.073 28.6169 111.088 29.0916C111.088 29.3289 111.088 29.5663 110.999 29.7888C110.895 30.0558 110.746 30.2635 110.478 30.397C110.3 30.486 110.136 30.5898 109.958 30.664C109.869 30.6936 109.779 30.6491 109.765 30.5601C109.765 30.3821 109.779 30.0409 109.779 30.0409ZM111.267 33.9719C111.267 34.0461 111.252 34.1796 111.252 34.3131C111.237 34.7581 110.657 35.3218 109.988 35.3367C109.943 35.3367 109.869 35.2922 109.854 35.2477C109.824 35.1587 109.794 35.0548 109.794 34.951C109.779 34.4911 109.794 34.0461 109.794 33.5566C109.839 33.2451 109.809 32.9187 109.809 32.5924C109.824 32.3402 109.884 32.2957 110.122 32.2512C110.478 32.2067 110.806 32.355 110.969 32.6369C111.163 32.9781 111.237 33.3489 111.267 33.7346V33.9719ZM116.969 28.6317C116.969 30.1299 116.984 31.643 117.014 33.1264C117.029 34.0313 117.014 35.0548 117.445 35.8855C117.995 36.9536 119.215 37.4283 120.39 37.3541C121.193 37.2947 121.937 37.0871 122.517 36.4937C123.499 35.4405 123.305 33.7939 123.32 32.444C123.35 30.5008 123.394 28.6911 123.394 26.733C123.394 26.4066 123.29 26.2286 122.963 26.2138C122.562 26.199 122.16 26.2138 121.758 26.2435C121.595 26.2435 121.461 26.3918 121.461 26.5698C121.476 27.9939 121.506 29.4328 121.491 30.8716C121.476 32.1029 121.639 33.4676 121.178 34.6395C121 35.0697 120.598 35.396 120.122 35.396C118.932 35.3663 118.977 33.9571 118.932 33.1264C118.843 31.3167 118.977 29.4624 119.022 27.6527C119.022 27.3115 119.022 26.9703 119.037 26.6291C119.051 26.4511 119.081 26.2286 118.843 26.2138H118.575C118.204 26.2435 117.832 26.199 117.46 26.2138C117.103 26.2435 116.984 26.3473 116.984 26.7033C116.984 27.3412 116.969 27.9939 116.969 28.6317ZM130.123 26.1248C129.84 26.1396 129.558 26.1841 129.275 26.2731C128.665 26.4808 128.115 26.8961 127.743 27.4302C127.416 27.9197 127.282 28.4982 127.238 29.0767C127.208 29.5218 127.253 29.9816 127.461 30.3821C127.684 30.8123 128.071 31.1832 128.398 31.5392C128.695 31.8507 128.993 32.1622 129.32 32.444C129.617 32.7259 129.959 32.9484 130.257 33.2451C130.688 33.6753 130.852 34.6543 130.54 35.1883C130.168 35.7817 129.29 35.8707 128.71 35.6778C128.413 35.574 128.145 35.3515 127.892 35.1735C127.743 35.0697 127.565 35.0252 127.461 35.2032C127.401 35.2922 127.372 35.396 127.342 35.485C127.238 35.8559 127.104 36.197 127.089 36.5975C127.074 37.0574 127.952 37.1909 128.279 37.2651C129.736 37.6063 131.491 37.3392 132.25 35.9004C132.399 35.6037 132.503 35.2922 132.562 34.9658C132.577 34.8471 132.592 34.7433 132.592 34.6246C132.652 33.6753 132.265 32.8742 131.685 32.1622C131.06 31.3908 130.272 30.8568 129.543 30.1893C129.097 29.7739 128.933 29.1212 129.067 28.5279C129.201 27.89 129.93 27.7268 130.48 27.89C130.644 27.9345 130.778 28.0087 130.926 28.0977C131.015 28.1422 131.105 28.2015 131.224 28.2015C131.432 28.2164 131.462 28.0532 131.506 27.89C131.61 27.5192 131.789 27.2225 131.863 26.8665C131.938 26.466 131.61 26.3918 131.283 26.288C130.896 26.1841 130.525 26.1099 130.123 26.1248ZM138.339 33.4973C138.294 31.8062 138.309 30.0113 138.324 28.335C138.324 27.8159 138.294 27.2522 138.294 26.733C138.294 26.1693 138.071 26.199 137.774 26.1841C137.343 26.1693 137.149 26.1693 136.718 26.1693C136.435 26.1544 136.316 26.2286 136.316 26.5105C136.316 27.9642 136.272 32.0732 136.287 32.6666C136.301 33.2599 136.361 35.9597 136.331 36.553C136.316 36.7607 136.331 36.9684 136.346 37.1761C136.361 37.2502 136.406 37.3244 136.525 37.3244C137.015 37.2947 137.476 37.2947 137.967 37.2799C138.146 37.2651 138.294 37.2206 138.369 37.0277C138.384 36.9239 138.339 34.2093 138.339 33.4973ZM148.399 26.5401C148.444 26.7478 148.414 36.6272 148.414 36.8794C148.414 37.3244 148.251 37.3096 147.953 37.3096C147.507 37.3096 146.882 37.3837 146.748 37.2354C146.629 37.1316 144.428 31.8359 144.116 31.1683C144.086 31.109 144.012 30.9606 143.952 30.9903C143.878 31.02 143.908 31.1238 143.908 31.1832C143.893 31.7023 143.982 36.1822 143.982 36.8942C143.982 37.2502 143.967 37.3096 143.67 37.3096H142.926C142.733 37.3096 142.495 37.2947 142.301 37.3244C142.153 37.3244 142.078 37.2799 142.063 37.1316V35.9597C142.093 34.7136 142.063 27.3263 142.063 26.7775C142.063 26.3028 142.197 26.2138 142.673 26.2138C143 26.199 143.328 26.199 143.655 26.199C143.759 26.199 143.818 26.2138 143.878 26.3473C144.279 27.2818 145.99 31.5688 146.258 32.088C146.302 32.1919 146.466 32.6072 146.555 32.6517H146.57C146.629 32.5924 146.615 32.2957 146.615 32.2067C146.615 31.9842 146.496 26.7775 146.496 26.6736C146.496 26.5253 146.451 26.3918 146.525 26.288C146.57 26.2286 146.763 26.2138 146.838 26.199C147.254 26.1693 147.745 26.2138 148.161 26.199C148.37 26.199 148.355 26.3473 148.399 26.5401ZM152.138 34.2835H152.124C152.124 34.6543 152.109 35.04 152.124 35.4257C152.138 35.9004 152.168 36.375 152.198 36.8497C152.198 37.0129 152.243 37.0574 152.391 37.0871C152.704 37.1612 153.001 37.1761 153.313 37.1761C154.117 37.1464 154.92 37.2057 155.723 37.1761C156.05 37.1612 156.199 37.1909 156.526 37.1316C156.824 37.0722 156.928 36.9091 156.928 36.464C156.898 36.1822 156.913 36.0635 156.913 35.7223C156.913 35.2328 156.571 35.0697 156.273 35.0845C156.065 35.0993 155.068 35.0697 154.667 35.0697C153.998 35.0845 154.102 35.1735 154.102 34.4763C154.102 33.9126 154.117 33.1857 154.117 32.6072C154.117 32.2957 154.146 32.1919 154.444 32.1919H156.303C156.6 32.2364 156.809 32.0287 156.809 31.7172C156.809 31.4057 156.838 31.3908 156.838 31.0793L156.794 30.6343C156.764 30.3821 156.675 30.2931 156.422 30.2931C156.258 30.2931 156.095 30.308 155.931 30.3228C155.292 30.3673 154.994 30.2783 154.369 30.3228C154.161 30.3228 154.131 30.2931 154.117 30.1003C154.057 29.5218 154.117 28.8839 154.176 28.3054C154.191 28.068 154.25 28.0235 154.474 28.0087L156.571 27.9939C156.853 27.9642 156.943 27.979 156.928 27.6972C156.898 27.267 156.943 26.822 156.898 26.3918C156.868 26.1544 156.794 26.1099 156.526 26.1099C156.08 26.1248 155.976 26.1248 155.53 26.1544C155.083 26.1693 153.299 26.1693 152.867 26.1693C152.243 26.1693 152.198 26.1248 152.183 26.8813C152.153 27.4747 152.168 28.0829 152.168 28.6911C152.168 29.7294 152.109 33.4528 152.138 34.2835ZM163.656 26.1248C163.374 26.1396 163.091 26.1841 162.809 26.2731C162.199 26.4808 161.648 26.8961 161.277 27.4302C160.949 27.9197 160.816 28.4982 160.771 29.0767C160.741 29.5218 160.786 29.9816 160.994 30.3821C161.217 30.8123 161.604 31.1832 161.931 31.5392C162.228 31.8507 162.526 32.1622 162.853 32.444C163.151 32.7259 163.493 32.9484 163.79 33.2451C164.221 33.6753 164.385 34.6543 164.073 35.1883C163.701 35.7817 162.823 35.8707 162.243 35.6778C161.946 35.574 161.678 35.3515 161.425 35.1735C161.277 35.0697 161.098 35.0252 160.994 35.2032C160.934 35.2922 160.905 35.396 160.875 35.485C160.771 35.8559 160.637 36.197 160.622 36.5975C160.607 37.0574 161.485 37.1909 161.812 37.2651C163.27 37.6063 165.025 37.3392 165.783 35.9004C165.932 35.6037 166.036 35.2922 166.096 34.9658C166.11 34.8471 166.125 34.7433 166.125 34.6246C166.185 33.6753 165.798 32.8742 165.218 32.1622C164.593 31.3908 163.805 30.8568 163.076 30.1893C162.63 29.7739 162.466 29.1212 162.6 28.5279C162.734 27.89 163.463 27.7268 164.013 27.89C164.177 27.9345 164.311 28.0087 164.459 28.0977C164.549 28.1422 164.638 28.2015 164.757 28.2015C164.965 28.2164 164.995 28.0532 165.04 27.89C165.144 27.5192 165.322 27.2225 165.396 26.8665C165.471 26.466 165.144 26.3918 164.816 26.288C164.43 26.1841 164.058 26.1099 163.656 26.1248ZM172.854 26.1248C172.571 26.1396 172.289 26.1841 172.006 26.2731C171.396 26.4808 170.846 26.8961 170.474 27.4302C170.147 27.9197 170.013 28.4982 169.969 29.0767C169.939 29.5218 169.983 29.9816 170.192 30.3821C170.415 30.8123 170.801 31.1832 171.129 31.5392C171.426 31.8507 171.724 32.1622 172.051 32.444C172.348 32.7259 172.69 32.9484 172.988 33.2451C173.419 33.6753 173.583 34.6543 173.27 35.1883C172.899 35.7817 172.021 35.8707 171.441 35.6778C171.143 35.574 170.876 35.3515 170.623 35.1735C170.474 35.0697 170.296 35.0252 170.192 35.2032C170.132 35.2922 170.102 35.396 170.073 35.485C169.969 35.8559 169.835 36.197 169.82 36.5975C169.805 37.0574 170.682 37.1909 171.01 37.2651C172.467 37.6063 174.222 37.3392 174.981 35.9004C175.13 35.6037 175.234 35.2922 175.293 34.9658C175.308 34.8471 175.323 34.7433 175.323 34.6246C175.382 33.6753 174.996 32.8742 174.416 32.1622C173.791 31.3908 173.003 30.8568 172.274 30.1893C171.828 29.7739 171.664 29.1212 171.798 28.5279C171.932 27.89 172.661 27.7268 173.211 27.89C173.374 27.9345 173.508 28.0087 173.657 28.0977C173.746 28.1422 173.836 28.2015 173.955 28.2015C174.163 28.2164 174.193 28.0532 174.237 27.89C174.341 27.5192 174.52 27.2225 174.594 26.8665C174.668 26.466 174.341 26.3918 174.014 26.288C173.627 26.1841 173.255 26.1099 172.854 26.1248ZM184.958 34.2835H184.943C184.943 34.6543 184.928 35.04 184.943 35.4257C184.958 35.9004 184.988 36.375 185.017 36.8497C185.017 37.0129 185.062 37.0574 185.211 37.0871C185.523 37.1612 185.82 37.1761 186.133 37.1761C186.936 37.1464 187.739 37.2057 188.542 37.1761C188.869 37.1612 189.018 37.1909 189.345 37.1316C189.643 37.0722 189.747 36.9091 189.747 36.464C189.717 36.1822 189.732 36.0635 189.732 35.7223C189.732 35.2328 189.39 35.0697 189.093 35.0845C188.884 35.0993 187.888 35.0697 187.486 35.0697C186.817 35.0845 186.921 35.1735 186.921 34.4763C186.921 33.9126 186.936 33.1857 186.936 32.6072C186.936 32.2957 186.966 32.1919 187.263 32.1919H189.122C189.42 32.2364 189.628 32.0287 189.628 31.7172C189.628 31.4057 189.658 31.3908 189.658 31.0793L189.613 30.6343C189.583 30.3821 189.494 30.2931 189.241 30.2931C189.078 30.2931 188.914 30.308 188.75 30.3228C188.111 30.3673 187.813 30.2783 187.189 30.3228C186.981 30.3228 186.951 30.2931 186.936 30.1003C186.876 29.5218 186.936 28.8839 186.995 28.3054C187.01 28.068 187.07 28.0235 187.293 28.0087L189.39 27.9939C189.673 27.9642 189.762 27.979 189.747 27.6972C189.717 27.267 189.762 26.822 189.717 26.3918C189.687 26.1544 189.613 26.1099 189.345 26.1099C188.899 26.1248 188.795 26.1248 188.349 26.1544C187.903 26.1693 186.118 26.1693 185.687 26.1693C185.062 26.1693 185.017 26.1248 185.002 26.8813C184.973 27.4747 184.988 28.0829 184.988 28.6911C184.988 29.7294 184.928 33.4528 184.958 34.2835ZM195.434 26.1841C195.107 26.199 194.23 26.1841 194.111 26.1841C193.903 26.1693 193.769 26.288 193.784 26.4956C193.784 26.5846 193.813 26.6736 193.858 26.7478C194.289 27.5637 194.691 28.4834 195.078 29.3141L196.015 31.2722C196.104 31.465 196.044 31.6282 195.97 31.821C195.925 31.9249 195.896 32.0435 195.851 32.1474C195.271 33.5121 194.616 34.8916 193.917 36.197C193.769 36.4789 193.605 36.7756 193.471 37.0574C193.293 37.4134 193.888 37.3244 194.557 37.3244C195.613 37.3244 195.628 37.2651 195.687 37.1316C195.851 36.7904 196.833 33.7643 197.115 33.7643C197.338 33.7643 198.439 36.6866 198.692 37.1612C198.751 37.2799 198.945 37.3392 199.093 37.3392H200.12C200.313 37.3392 200.774 37.3986 200.774 37.1464C200.774 36.9536 200.03 35.7075 199.822 35.2477L198.915 33.2302C198.766 32.9039 198.632 32.5775 198.483 32.266C198.379 32.0139 198.186 31.6875 198.171 31.4205C198.171 31.2722 199.852 28.0235 200.477 26.4956C200.625 26.1248 200.06 26.199 199.867 26.199C199.51 26.2138 199.212 26.199 198.87 26.2138C198.543 26.2138 198.454 26.3028 198.335 26.5846L198.246 26.7923C197.948 27.4153 197.517 28.5575 197.204 29.1806C197.19 29.2102 197.145 29.2547 197.115 29.2547C197.071 29.2547 197.026 29.2102 197.026 29.1657C196.773 28.5279 196.253 27.178 195.955 26.5698C195.821 26.3028 195.747 26.1693 195.434 26.1841ZM204.483 28.1422C204.498 29.0174 204.498 36.4492 204.498 37.0574C204.498 37.2799 204.528 37.3244 204.751 37.3244C205.257 37.3244 205.257 37.3392 205.762 37.3244C205.867 37.3244 206.045 37.3244 206.134 37.2799C206.238 37.2354 206.179 33.7346 206.179 33.5418C206.179 33.3341 206.595 33.3786 206.714 33.3786C209.198 33.3786 209.882 31.5985 209.882 30.0854C209.882 28.7207 209.615 26.199 206.521 26.199C205.986 26.199 205.435 26.2138 204.915 26.2138C204.796 26.2138 204.647 26.199 204.543 26.2731C204.424 26.3621 204.468 27.6823 204.483 28.1422ZM206.194 31.198C206.194 30.8716 206.179 28.9284 206.194 28.335C206.194 28.246 206.179 28.1422 206.194 28.0384C206.238 27.8752 206.432 27.8752 206.58 27.89C207.443 27.9494 207.934 28.7059 208.008 29.5069C208.068 30.0854 207.993 30.9458 207.577 31.4057C207.28 31.7172 206.893 31.91 206.387 31.91C206.283 31.91 206.179 31.7913 206.179 31.6875C206.179 31.5243 206.179 31.3612 206.194 31.198ZM213.592 34.2835H213.577C213.577 34.6543 213.562 35.04 213.577 35.4257C213.592 35.9004 213.621 36.375 213.651 36.8497C213.651 37.0129 213.696 37.0574 213.845 37.0871C214.157 37.1612 214.454 37.1761 214.767 37.1761C215.57 37.1464 216.373 37.2057 217.176 37.1761C217.503 37.1612 217.652 37.1909 217.979 37.1316C218.277 37.0722 218.381 36.9091 218.381 36.464C218.351 36.1822 218.366 36.0635 218.366 35.7223C218.366 35.2328 218.024 35.0697 217.726 35.0845C217.518 35.0993 216.522 35.0697 216.12 35.0697C215.451 35.0845 215.555 35.1735 215.555 34.4763C215.555 33.9126 215.57 33.1857 215.57 32.6072C215.57 32.2957 215.6 32.1919 215.897 32.1919H217.756C218.054 32.2364 218.262 32.0287 218.262 31.7172C218.262 31.4057 218.292 31.3908 218.292 31.0793L218.247 30.6343C218.217 30.3821 218.128 30.2931 217.875 30.2931C217.712 30.2931 217.548 30.308 217.384 30.3228C216.745 30.3673 216.447 30.2783 215.823 30.3228C215.615 30.3228 215.585 30.2931 215.57 30.1003C215.51 29.5218 215.57 28.8839 215.629 28.3054C215.644 28.068 215.704 28.0235 215.927 28.0087L218.024 27.9939C218.307 27.9642 218.396 27.979 218.381 27.6972C218.351 27.267 218.396 26.822 218.351 26.3918C218.321 26.1544 218.247 26.1099 217.979 26.1099C217.533 26.1248 217.429 26.1248 216.983 26.1544C216.537 26.1693 214.752 26.1693 214.321 26.1693C213.696 26.1693 213.651 26.1248 213.636 26.8813C213.607 27.4747 213.621 28.0829 213.621 28.6911C213.621 29.7294 213.562 33.4528 213.592 34.2835ZM223.92 36.2119C223.92 35.8262 223.92 33.3934 223.935 33.2006C223.949 33.1561 223.979 33.0671 224.039 33.0671C224.098 33.0671 224.128 33.0967 224.143 33.1412C224.738 34.2983 225.258 35.4553 225.794 36.5827C225.868 36.7459 226.032 37.2206 226.076 37.2651C226.136 37.3541 226.24 37.3244 226.329 37.3244L227.965 37.3392C228.159 37.3392 228.203 37.2206 228.159 37.0574C228.04 36.6124 227.192 35.04 226.998 34.6543C226.865 34.3576 225.972 32.6369 225.942 32.5034C225.913 32.444 226.136 32.3402 226.166 32.2957C226.88 31.6578 227.519 31.0052 227.653 30.0113C227.802 29.0322 227.579 27.9642 226.939 27.178C226.448 26.5995 225.809 26.2583 225.05 26.2138C224.589 26.1841 224.143 26.2286 223.682 26.2138C223.28 26.199 222.998 26.199 222.492 26.199C222.254 26.199 222.105 26.3325 222.09 26.5846V26.7626C222.061 27.9049 222.09 29.0471 222.105 30.1744C222.105 31.8952 222.075 36.4344 222.075 37.0871C222.075 37.2799 222.105 37.3244 222.284 37.3244C222.388 37.3244 222.507 37.3392 222.611 37.3392C223.027 37.3392 223.28 37.3244 223.711 37.3244C224.039 37.3244 223.92 36.7904 223.92 36.2119ZM223.92 30.4266L223.935 28.9284C223.949 28.7059 223.875 28.2609 224.083 28.0977C224.366 27.89 224.946 28.0977 225.199 28.2757C225.942 28.7801 225.883 30.0261 225.481 30.7233C225.288 31.0497 224.961 31.2425 224.589 31.3463C224.366 31.4057 223.949 31.4798 223.935 31.1238C223.935 30.8865 223.92 30.4266 223.92 30.4266ZM233.757 35.7075C233.772 36.1674 233.772 36.6272 233.787 37.0871C233.787 37.2947 233.802 37.3244 234.01 37.3244H235.348C235.631 37.3244 235.571 36.8497 235.557 36.5975L235.601 28.2905C235.601 28.068 235.676 27.9939 235.973 27.9939H237.282C237.594 27.9939 237.52 27.4598 237.52 27.089C237.52 26.7626 237.639 26.199 237.282 26.199C237.029 26.199 234.605 26.199 233.608 26.2138C233.117 26.2138 232.716 26.199 232.225 26.199C231.853 26.199 231.868 26.4956 231.868 27.1483C231.868 27.5637 231.853 27.979 232.21 27.979C232.418 27.979 233.266 27.979 233.504 27.9939C233.653 27.9939 233.757 28.0384 233.787 28.2015C233.787 28.246 233.802 28.2905 233.802 28.335C233.802 29.4031 233.727 34.3725 233.757 35.7075ZM244.263 26.1248C243.981 26.1396 243.698 26.1841 243.416 26.2731C242.806 26.4808 242.255 26.8961 241.884 27.4302C241.556 27.9197 241.423 28.4982 241.378 29.0767C241.348 29.5218 241.393 29.9816 241.601 30.3821C241.824 30.8123 242.211 31.1832 242.538 31.5392C242.836 31.8507 243.133 32.1622 243.46 32.444C243.758 32.7259 244.1 32.9484 244.397 33.2451C244.829 33.6753 244.992 34.6543 244.68 35.1883C244.308 35.7817 243.43 35.8707 242.85 35.6778C242.553 35.574 242.285 35.3515 242.032 35.1735C241.884 35.0697 241.705 35.0252 241.601 35.2032C241.542 35.2922 241.512 35.396 241.482 35.485C241.378 35.8559 241.244 36.197 241.229 36.5975C241.214 37.0574 242.092 37.1909 242.419 37.2651C243.877 37.6063 245.632 37.3392 246.39 35.9004C246.539 35.6037 246.643 35.2922 246.703 34.9658C246.717 34.8471 246.732 34.7433 246.732 34.6246C246.792 33.6753 246.405 32.8742 245.825 32.1622C245.2 31.3908 244.412 30.8568 243.683 30.1893C243.237 29.7739 243.073 29.1212 243.207 28.5279C243.341 27.89 244.07 27.7268 244.62 27.89C244.784 27.9345 244.918 28.0087 245.067 28.0977C245.156 28.1422 245.245 28.2015 245.364 28.2015C245.572 28.2164 245.602 28.0532 245.647 27.89C245.751 27.5192 245.929 27.2225 246.004 26.8665C246.078 26.466 245.751 26.3918 245.423 26.288C245.037 26.1841 244.665 26.1099 244.263 26.1248Z" fill="#FFF3EF"/>
</svg>
