<svg width="67" height="22" viewBox="0 0 67 22" fill="none" xmlns="http://www.w3.org/2000/svg">
<path d="M28.6006 11.5776C28.6006 14.7427 26.1245 17.0751 23.0857 17.0751C20.0469 17.0751 17.5708 14.7427 17.5708 11.5776C17.5708 8.39012 20.0469 6.08008 23.0857 6.08008C26.1245 6.08008 28.6006 8.39012 28.6006 11.5776ZM26.1864 11.5776C26.1864 9.59967 24.7513 8.24636 23.0857 8.24636C21.4201 8.24636 19.985 9.59967 19.985 11.5776C19.985 13.5357 21.4201 14.9088 23.0857 14.9088C24.7513 14.9088 26.1864 13.5332 26.1864 11.5776Z" fill="#EA4335"/>
<path d="M40.4979 11.5776C40.4979 14.7427 38.0218 17.0751 34.983 17.0751C31.9443 17.0751 29.4681 14.7427 29.4681 11.5776C29.4681 8.3926 31.9443 6.08008 34.983 6.08008C38.0218 6.08008 40.4979 8.39012 40.4979 11.5776ZM38.0838 11.5776C38.0838 9.59967 36.6486 8.24636 34.983 8.24636C33.3174 8.24636 31.8823 9.59967 31.8823 11.5776C31.8823 13.5357 33.3174 14.9088 34.983 14.9088C36.6486 14.9088 38.0838 13.5332 38.0838 11.5776Z" fill="#FBBC05"/>
<path d="M51.8994 6.41221V16.2819C51.8994 20.3419 49.505 22 46.6745 22C44.01 22 42.4063 20.2179 41.8015 18.7605L43.9034 17.8856C44.2777 18.7804 45.1948 19.8362 46.672 19.8362C48.4839 19.8362 49.6067 18.7184 49.6067 16.6141V15.8234H49.5224C48.9821 16.4901 47.941 17.0726 46.6274 17.0726C43.8786 17.0726 41.3604 14.6783 41.3604 11.5974C41.3604 8.49422 43.8786 6.08008 46.6274 6.08008C47.9386 6.08008 48.9796 6.66255 49.5224 7.30946H49.6067V6.41469H51.8994V6.41221ZM49.7777 11.5974C49.7777 9.66163 48.4863 8.24636 46.843 8.24636C45.1774 8.24636 43.7819 9.66163 43.7819 11.5974C43.7819 13.5134 45.1774 14.9088 46.843 14.9088C48.4863 14.9088 49.7777 13.5134 49.7777 11.5974Z" fill="#4285F4"/>
<path d="M55.6794 0.626953V16.7378H53.3247V0.626953H55.6794Z" fill="#34A853"/>
<path d="M64.855 13.3875L66.7288 14.6367C66.1241 15.5315 64.6667 17.0731 62.1484 17.0731C59.0254 17.0731 56.693 14.659 56.693 11.5756C56.693 8.30637 59.0452 6.07812 61.8782 6.07812C64.7311 6.07812 66.1265 8.34851 66.5826 9.57541L66.833 10.2L59.4839 13.2437C60.0465 14.3467 60.9215 14.9093 62.1484 14.9093C63.3778 14.9093 64.2304 14.3046 64.855 13.3875ZM59.0873 11.4096L63.9999 9.36969C63.7297 8.68312 62.9168 8.20475 61.96 8.20475C60.7331 8.20475 59.0254 9.28789 59.0873 11.4096Z" fill="#EA4335"/>
<path d="M8.65776 10.1473V7.81498H16.5174C16.5942 8.22147 16.6339 8.70232 16.6339 9.22282C16.6339 10.9727 16.1555 13.1365 14.6138 14.6782C13.1143 16.2397 11.1983 17.0725 8.66023 17.0725C3.95585 17.0725 0 13.2406 0 8.53625C0 3.83189 3.95585 0 8.66023 0C11.2628 0 13.1168 1.02118 14.5097 2.35218L12.8639 3.99796C11.8651 3.06105 10.5117 2.33235 8.65776 2.33235C5.22241 2.33235 2.53561 5.10093 2.53561 8.53625C2.53561 11.9716 5.22241 14.7402 8.65776 14.7402C10.886 14.7402 12.1551 13.8454 12.968 13.0324C13.6274 12.3731 14.0611 11.4312 14.2321 10.1449L8.65776 10.1473Z" fill="#4285F4"/>
</svg>
