<svg width="1440" height="1256" viewBox="0 0 1440 1256" fill="none" xmlns="http://www.w3.org/2000/svg">
<path d="M284.757 539.66L684.737 1230.69C690.828 1241.83 683.214 1256 670.017 1256H382.722C366.479 1256 351.759 1247.39 343.13 1233.22L6.09106 650.528C-2.03035 636.859 -2.03035 619.141 6.09106 605.472L94.4115 453.091H94.9191L204.051 264.767H203.543L284.25 125.549C350.744 11.1374 515.202 4.04998 587.788 114.412C589.31 116.943 590.833 118.968 592.356 121.499L1026.34 870.746C1026.85 871.252 1027.36 871.758 1027.36 872.264C1079.13 960.351 1206.54 958.833 1257.8 870.746L1296.89 803.415C1238.01 800.377 1184.71 768.484 1155.27 716.846L755.292 25.3124C749.201 14.1749 756.814 0 770.012 0H1056.8C1073.04 0 1087.76 8.60621 1096.39 22.7811L1433.43 604.966C1441.55 618.634 1441.55 636.353 1433.43 650.022L1394.35 717.353L1195.88 1060.59L1153.24 1133.99C1086.75 1248.41 921.273 1253.47 851.226 1141.08C850.211 1139.06 848.18 1136.53 847.165 1134.5L413.177 385.254C412.669 384.748 412.162 384.242 412.162 383.736C360.388 296.155 232.983 297.674 182.224 385.254L142.632 453.091C202.02 456.129 255.317 488.529 284.757 539.66Z" fill="#FA7D54" fill-opacity="0.1"/>
</svg>
